<svg width="75" height="75" viewBox="0 0 75 75" fill="none" xmlns="http://www.w3.org/2000/svg">
<g clip-path="url(#clip0_4585_6667)">
<rect width="75" height="75" rx="37.5" fill="#FE3058"/>
<path d="M33.4243 58.4545C33.5608 58.4809 33.6974 58.5069 33.834 58.5329C33.8667 58.5392 33.8995 58.5455 33.9333 58.5519C34.3871 58.6382 34.8413 58.6904 35.3013 58.7288C35.41 58.7379 35.5187 58.7471 35.6275 58.7563C35.654 58.7585 35.6806 58.7608 35.708 58.7631C35.8588 58.7759 36.0092 58.7903 36.1597 58.8069C36.5237 58.8461 36.8782 58.8568 37.2442 58.842C37.2896 58.8403 37.3351 58.8386 37.3818 58.8368C37.8561 58.818 38.3298 58.7918 38.8034 58.7602C38.848 58.7573 38.8925 58.7544 38.9384 58.7513C40.0417 58.6772 41.1376 58.5412 42.2314 58.3803C42.7538 58.3052 43.1642 58.3624 43.6167 58.6473C43.9279 58.8805 44.134 59.1919 44.205 59.574C44.2151 59.6798 44.217 59.7846 44.2162 59.8909C44.216 59.9191 44.2159 59.9474 44.2157 59.9765C44.2096 60.2955 44.1576 60.5787 43.9532 60.8327C43.9349 60.8578 43.9166 60.8829 43.8977 60.9087C43.5201 61.3878 42.992 61.4593 42.4224 61.5355C42.2935 61.5528 42.1648 61.5714 42.0361 61.5901C41.5817 61.655 41.1285 61.7081 40.6706 61.7395C40.3218 61.7636 39.9741 61.7966 39.6261 61.8301C37.8164 62.0034 36.0965 62.0133 34.2945 61.7574C34.1794 61.7414 34.0643 61.7282 33.9486 61.7171C33.5638 61.6798 33.1855 61.6263 32.8055 61.5549C32.7178 61.5384 32.63 61.5226 32.5422 61.5068C31.4489 61.3066 31.4489 61.3066 31.1135 60.8687C31.089 60.8479 31.0646 60.8272 31.0393 60.8058C30.8151 60.5454 30.7335 60.1218 30.7429 59.7848C30.7895 59.3466 30.9303 58.987 31.2554 58.6809C31.9161 58.1526 32.6537 58.3019 33.4243 58.4545Z" fill="#FCFCFC"/>
<path d="M64.378 51.4378C64.6655 51.6989 64.7964 52.0597 64.8299 52.4385C64.8445 52.8972 64.7501 53.2872 64.4404 53.6341C64.2772 53.7979 64.1229 53.9497 63.92 54.064C63.8313 54.1181 63.7545 54.1815 63.6744 54.2476C63.5188 54.3748 63.3568 54.4822 63.1861 54.5879C63.0748 54.6588 62.9709 54.7369 62.8663 54.8171C62.6606 54.9714 62.6606 54.9714 62.5527 54.9714C62.5527 54.9951 62.5527 55.0189 62.5527 55.0433C62.4858 55.0943 62.4858 55.0943 62.3923 55.1529C62.3582 55.1744 62.3241 55.1959 62.289 55.2181C62.2529 55.2405 62.2168 55.263 62.1796 55.2861C62.1449 55.308 62.1101 55.3299 62.0744 55.3524C61.8798 55.4746 61.6838 55.594 61.4865 55.7117C61.4056 55.7604 61.3254 55.81 61.2453 55.8601C60.8987 56.0768 60.5482 56.2708 60.179 56.446C60.1227 56.4729 60.0664 56.4998 60.0101 56.5268C59.8656 56.5957 59.7208 56.664 59.5758 56.732C59.5031 56.7662 59.4304 56.8004 59.3577 56.8347C59.0996 56.9559 58.8405 57.0747 58.5808 57.1923C58.551 57.2058 58.5212 57.2194 58.4905 57.2334C58.359 57.2926 58.2279 57.3496 58.0924 57.3991C57.9288 57.4589 57.7722 57.5326 57.6142 57.6059C57.3455 57.7287 57.0749 57.838 56.7967 57.9373C56.5777 58.0158 56.3629 58.102 56.1493 58.194C56.0227 58.2477 55.897 58.2928 55.7648 58.3311C55.512 58.4045 55.2686 58.503 55.0237 58.5988C54.5853 58.767 54.0507 58.8428 53.5973 58.6758C53.1976 58.4957 52.926 58.224 52.7409 57.8262C52.6038 57.4364 52.6015 56.9264 52.7701 56.5443C52.9656 56.1663 53.2552 55.8747 53.6604 55.7264C53.7346 55.7044 53.8091 55.6833 53.8836 55.6626C54.0776 55.6068 54.2652 55.5329 54.4538 55.4614C54.4914 55.4472 54.529 55.4329 54.5677 55.4183C54.6418 55.3901 54.7159 55.362 54.79 55.3338C54.9032 55.2909 55.0167 55.2486 55.1302 55.2064C55.3587 55.1215 55.5857 55.0332 55.8117 54.9418C55.954 54.8843 56.097 54.8295 56.2408 54.7758C56.4586 54.6928 56.6675 54.5958 56.8773 54.4947C56.9757 54.4483 57.0751 54.4073 57.1765 54.3678C57.4032 54.2783 57.6234 54.1753 57.844 54.0719C57.9154 54.0386 57.9868 54.0054 58.0582 53.9723C58.2791 53.8694 58.4975 53.7651 58.7077 53.6415C58.7855 53.5998 58.8643 53.5696 58.9472 53.5395C59.1411 53.4651 59.3094 53.3592 59.4844 53.2481C59.5991 53.1759 59.7153 53.1078 59.8328 53.0405C59.9498 52.9728 60.0631 52.9044 60.1723 52.8247C60.2678 52.7554 60.3631 52.6988 60.4662 52.6419C60.5604 52.5844 60.6477 52.5194 60.7365 52.4538C60.9136 52.3232 61.0835 52.2003 61.2939 52.1301C61.2939 52.1064 61.2939 52.0826 61.2939 52.0582C61.3427 52.0156 61.3427 52.0156 61.4086 51.9705C61.4405 51.9483 61.4405 51.9483 61.4731 51.9257C61.5223 51.8936 61.5725 51.8631 61.6235 51.8341C61.8053 51.7207 61.9731 51.5866 62.1431 51.4565C62.8781 50.9051 63.6368 50.8628 64.378 51.4378Z" fill="#FDFDFD"/>
<path d="M47.9832 15.4759C48.0169 15.4941 48.0507 15.5122 48.0854 15.5309C48.3 15.6475 48.5036 15.7737 48.7048 15.912C48.7418 15.9364 48.7788 15.9608 48.8169 15.9859C49.0602 16.1465 49.2989 16.3122 49.532 16.4875C49.5654 16.5125 49.5988 16.5375 49.6333 16.5633C49.6592 16.5858 49.6851 16.6082 49.7118 16.6313C49.7118 16.6551 49.7118 16.6788 49.7118 16.7032C49.7326 16.7131 49.7534 16.7229 49.7749 16.733C50.0009 16.8509 50.1635 17.0101 50.3232 17.2068C50.3645 17.2435 50.4065 17.2795 50.4491 17.3147C50.5665 17.4118 50.6572 17.5212 50.7548 17.6383C50.8172 17.6938 50.8814 17.7468 50.9457 17.8001C51.0366 17.8808 51.1089 17.9765 51.1864 18.0699C51.222 18.0989 51.2576 18.1278 51.2943 18.1576C51.3986 18.2467 51.4629 18.3293 51.5389 18.4412C51.6034 18.5314 51.6826 18.6039 51.7618 18.6813C51.9587 18.8888 52.1349 19.1031 52.3 19.3365C52.3753 19.4395 52.4552 19.5368 52.5373 19.6344C52.6711 19.7953 52.7833 19.9623 52.8926 20.1403C52.9399 20.2141 52.9879 20.2789 53.0453 20.3447C53.1195 20.4329 53.1737 20.519 53.2281 20.62C53.2853 20.7174 53.3511 20.8077 53.4162 20.9C53.703 21.3334 53.7865 21.8055 53.6897 22.3172C53.6176 22.6071 53.491 22.8317 53.2724 23.0332C53.2397 23.0651 53.2071 23.097 53.1735 23.1298C52.7548 23.4278 52.3322 23.4679 51.8338 23.4288C51.4749 23.3562 51.1458 23.1531 50.9346 22.8533C50.9346 22.8296 50.9346 22.8059 50.9346 22.7814C50.9109 22.7814 50.8872 22.7814 50.8627 22.7814C50.8122 22.7138 50.8122 22.7138 50.7547 22.62C50.734 22.5864 50.7133 22.5528 50.6919 22.5182C50.6704 22.4827 50.6489 22.4471 50.6267 22.4105C50.605 22.3754 50.5833 22.3403 50.561 22.3041C50.4004 22.0418 50.4004 22.0418 50.3592 21.9182C50.3354 21.9182 50.3117 21.9182 50.2872 21.9182C50.2474 21.8606 50.2104 21.801 50.1749 21.7407C50.0697 21.5705 49.9559 21.4256 49.8204 21.279C49.7475 21.1986 49.68 21.1157 49.6129 21.0303C49.2799 20.6106 48.9246 20.2193 48.5452 19.8412C48.4731 19.7692 48.4015 19.6967 48.3299 19.6242C48.0511 19.3441 47.7671 19.092 47.446 18.8612C47.4208 18.8428 47.3957 18.8245 47.3698 18.8056C47.1846 18.6722 46.9971 18.5413 46.7961 18.4328C46.6943 18.3753 46.5963 18.312 46.4974 18.2498C46.3453 18.1552 46.1944 18.0704 46.0288 18.0019C45.953 17.9696 45.8791 17.9355 45.8049 17.8997C45.5246 17.7644 45.2426 17.6384 44.9531 17.5237C44.9226 17.5116 44.8921 17.4995 44.8607 17.4871C44.7318 17.4362 44.6027 17.3858 44.4733 17.3362C44.0169 17.156 43.7075 16.8802 43.4913 16.4367C43.3318 16.0408 43.3244 15.6199 43.4785 15.2205C43.6783 14.7985 44.0083 14.4769 44.4504 14.3172C45.572 13.9956 47.0331 14.9596 47.9832 15.4759Z" fill="#FDFDFD"/>
<path d="M18.4274 49.3239C18.5227 49.4124 18.6012 49.5077 18.6791 49.6116C18.6983 49.6358 18.7175 49.6601 18.7373 49.6851C18.8371 49.8135 18.9205 49.9429 18.9992 50.0856C19.0832 50.2245 19.1893 50.3481 19.2905 50.4748C19.322 50.5147 19.3533 50.5547 19.3847 50.5947C19.5614 50.8204 19.7391 51.0451 19.9213 51.2664C19.9739 51.3379 19.9739 51.3379 20.0098 51.4458C20.0633 51.4636 20.0633 51.4636 20.1177 51.4818C20.1666 51.5394 20.1666 51.5394 20.2166 51.6122C20.3087 51.7399 20.4079 51.8477 20.5208 51.9569C20.5892 52.0252 20.6525 52.0965 20.7157 52.1696C20.8119 52.281 20.9115 52.386 21.0169 52.4888C21.0369 52.5092 21.0569 52.5296 21.0776 52.5506C21.169 52.6437 21.2578 52.7322 21.3608 52.8125C21.4375 52.8754 21.4918 52.9342 21.5541 53.0103C21.6502 53.1261 21.7528 53.1988 21.88 53.2801C21.9402 53.3397 22.0001 53.3997 22.0599 53.4599C22.4001 53.7724 22.7664 54.0506 23.1388 54.3231C23.1757 54.3502 23.2126 54.3773 23.2505 54.4052C23.9768 54.9429 23.9768 54.9429 24.7581 55.3929C24.8292 55.438 24.8292 55.438 24.8652 55.5459C24.9125 55.5711 24.9606 55.5949 25.009 55.6178C25.2723 55.8369 25.4067 56.1524 25.4509 56.4871C25.4919 56.9617 25.409 57.4191 25.0985 57.797C25.0286 57.8632 24.9563 57.891 24.8652 57.9196C24.8533 57.9552 24.8414 57.9908 24.8292 58.0275C24.7351 58.084 24.7351 58.084 24.6179 58.1399C24.5794 58.1585 24.541 58.1772 24.5013 58.1964C24.1847 58.3397 23.759 58.323 23.4211 58.2572C23.3323 58.2237 23.2561 58.1845 23.1748 58.1354C23.1381 58.114 23.1015 58.0927 23.0637 58.0706C22.9434 57.9984 22.8253 57.9235 22.7073 57.8477C22.6705 57.8247 22.6337 57.8018 22.5958 57.7781C22.3337 57.6141 22.3337 57.6141 22.2262 57.5257C22.1369 57.456 22.0452 57.4019 21.9463 57.3471C21.8299 57.2788 21.7229 57.1978 21.6148 57.1171C21.5911 57.0996 21.5675 57.0821 21.5431 57.0641C21.3923 56.9522 21.2433 56.8382 21.0961 56.7217C20.9672 56.6227 20.8334 56.5304 20.6999 56.4377C20.6213 56.3731 20.6213 56.3731 20.5853 56.2652C20.5218 56.2289 20.5218 56.2289 20.4414 56.1933C20.27 56.092 20.144 55.9698 20.0056 55.8271C19.9297 55.7537 19.8497 55.7058 19.7581 55.6538C19.6974 55.5946 19.6375 55.5346 19.5783 55.474C19.5381 55.4399 19.4976 55.4062 19.4569 55.3728C19.3628 55.2935 19.2824 55.2104 19.2029 55.1166C19.0965 54.9911 18.9811 54.8868 18.8559 54.7806C18.7704 54.7037 18.698 54.62 18.6259 54.5307C18.526 54.4141 18.4141 54.3091 18.304 54.2022C18.1328 54.0348 17.9779 53.8655 17.8344 53.6739C17.7775 53.5975 17.7775 53.5975 17.6901 53.5138C17.5876 53.4114 17.5022 53.3011 17.4147 53.1858C17.3502 53.1026 17.2834 53.0218 17.2158 52.9412C16.854 52.5061 16.5149 52.0508 16.2165 51.5699C16.182 51.5146 16.1466 51.4599 16.11 51.4061C15.8613 51.0363 15.8192 50.6291 15.8907 50.1918C15.9489 49.9691 16.0589 49.7933 16.1975 49.6116C16.2152 49.5867 16.2328 49.5619 16.251 49.5363C16.4678 49.2565 16.8133 49.0649 17.1627 49.0078C17.6211 48.9631 18.0461 49.0566 18.4274 49.3239Z" fill="#FDFDFD"/>
<path d="M35.6976 13.4393C35.9653 13.6919 36.144 14.0525 36.1686 14.4209C36.18 14.9291 36.0982 15.3541 35.7383 15.7322C35.3872 16.0725 34.9546 16.1583 34.4858 16.1997C34.4548 16.2026 34.4238 16.2055 34.3918 16.2085C34.2936 16.2178 34.1954 16.2267 34.0972 16.2356C33.7114 16.2711 33.327 16.3077 32.9434 16.3617C32.8158 16.3783 32.6884 16.3917 32.5604 16.4042C32.1867 16.4407 31.8203 16.4994 31.4515 16.5683C31.3902 16.5796 31.329 16.5909 31.2677 16.6022C31.1746 16.6194 31.0816 16.6365 30.9886 16.6539C30.7971 16.6895 30.6054 16.7234 30.4134 16.7563C29.7866 16.8649 29.1882 17.0169 28.5812 17.2045C28.4527 17.2434 28.3236 17.2796 28.1942 17.3155C27.9839 17.3751 27.7825 17.4467 27.5807 17.5304C27.5513 17.5423 27.522 17.5541 27.4918 17.5664C27.3214 17.6358 27.1528 17.7087 26.9849 17.7839C26.8722 17.8344 26.7589 17.8837 26.6456 17.9328C26.5824 17.9602 26.5824 17.9602 26.5179 17.9883C26.1914 18.1204 25.7805 18.1201 25.4483 18.0015C24.9645 17.7801 24.6611 17.4467 24.4629 16.955C24.4314 16.8246 24.4314 16.8246 24.4269 16.7032C24.4256 16.676 24.4243 16.6488 24.4229 16.6207C24.409 16.1502 24.5389 15.7779 24.8428 15.4174C25.0319 15.2198 25.2207 15.1188 25.4699 15.0128C25.5283 14.986 25.5865 14.9589 25.6447 14.9318C25.7078 14.9025 25.771 14.8734 25.8341 14.8442C25.8785 14.8237 25.8785 14.8237 25.9238 14.8027C26.1023 14.7221 26.2796 14.659 26.468 14.6053C26.5696 14.5751 26.6654 14.536 26.7625 14.4936C27.0287 14.3803 27.2925 14.2753 27.5743 14.208C27.7302 14.1697 27.8847 14.1284 28.0388 14.0838C28.6018 13.9211 29.1627 13.7921 29.7398 13.6875C29.9299 13.653 30.1195 13.6165 30.3091 13.5794C30.3974 13.5622 30.4857 13.5451 30.574 13.528C30.6302 13.5171 30.6864 13.5061 30.7426 13.495C31.088 13.4271 31.4313 13.3759 31.7815 13.3398C31.9433 13.323 32.1043 13.302 32.2655 13.2799C32.2922 13.2762 32.3189 13.2726 32.3465 13.2688C32.4013 13.2613 32.4562 13.2538 32.511 13.2463C32.9902 13.181 33.4695 13.1225 33.9511 13.0774C33.9979 13.073 34.0448 13.0685 34.093 13.0639C34.7014 13.0093 35.2014 13.038 35.6976 13.4393Z" fill="#FCFCFC"/>
<path d="M76.7091 39.3858C77.0975 39.648 77.283 39.9581 77.4231 40.4002C77.5123 40.8689 77.3938 41.2673 77.153 41.6649C77.0515 41.8082 76.933 41.9246 76.8055 42.0448C76.698 42.1505 76.611 42.2659 76.521 42.3864C76.4528 42.4712 76.3716 42.5306 76.2866 42.5981C76.2302 42.6702 76.1772 42.7442 76.1237 42.8184C76.0567 42.9039 75.9756 42.9621 75.891 43.0297C75.8343 43.1007 75.7813 43.1739 75.728 43.2475C75.6585 43.3395 75.5779 43.4168 75.4954 43.4973C75.4599 43.539 75.4247 43.581 75.3897 43.6232C75.3207 43.7051 75.2575 43.7674 75.174 43.8367C75.0611 43.9312 74.9714 44.0316 74.8763 44.1433C74.8154 44.2128 74.7522 44.2778 74.6862 44.3425C74.6013 44.4257 74.5219 44.5113 74.4448 44.6017C74.3086 44.7583 74.1639 44.9047 74.0163 45.0505C73.9915 45.0752 73.9667 45.0998 73.9412 45.1252C73.8949 45.1711 73.8487 45.217 73.8023 45.2628C73.7795 45.2855 73.7566 45.3082 73.7331 45.3315C73.7047 45.3595 73.6763 45.3875 73.6471 45.4164C73.5475 45.5172 73.4518 45.6211 73.3564 45.7259C73.1432 45.9584 72.9229 46.1832 72.6995 46.4058C72.6374 46.4677 72.5756 46.5297 72.5137 46.5918C72.4737 46.6318 72.4336 46.6718 72.3935 46.7118C72.3753 46.7301 72.3572 46.7483 72.3384 46.7671C72.233 46.8719 72.1227 46.9651 72.0067 47.0579C71.946 47.117 71.886 47.1769 71.8269 47.2377C71.7985 47.2667 71.77 47.2957 71.7407 47.3256C71.7113 47.3557 71.6818 47.3859 71.6514 47.417C71.6006 47.4685 71.5499 47.52 71.499 47.5715C71.4647 47.6064 71.4305 47.6413 71.3964 47.6763C71.0018 48.0815 70.6041 48.4689 70.0126 48.5038C69.5688 48.5094 69.2171 48.4724 68.8777 48.1728C68.8534 48.1547 68.829 48.1366 68.8039 48.118C68.5297 47.9059 68.3704 47.5871 68.3112 47.2472C68.2639 46.8126 68.3281 46.3759 68.59 46.0149C68.6489 45.9539 68.7089 45.894 68.7699 45.835C68.7987 45.8058 68.8275 45.7765 68.8572 45.7464C69.1233 45.4774 69.1233 45.4774 69.2666 45.3585C69.3457 45.2929 69.4021 45.2345 69.4689 45.1539C69.563 45.0415 69.6628 44.9511 69.7746 44.8571C69.8635 44.7792 69.9453 44.696 70.0286 44.6122C70.0686 44.5722 70.1086 44.5323 70.1486 44.4923C70.1703 44.4706 70.192 44.4488 70.2144 44.4265C70.4842 44.1567 70.7539 43.8869 71.0237 43.6172C71.0442 43.5967 71.0647 43.5761 71.0858 43.555C71.1383 43.5026 71.1908 43.4503 71.2434 43.398C71.3559 43.2847 71.4621 43.1656 71.5682 43.0463C71.6516 42.9541 71.7357 42.8695 71.832 42.7908C71.916 42.7215 71.9844 42.6563 72.054 42.5734C72.2583 42.3342 72.4676 42.1013 72.6901 41.8788C72.7255 41.8371 72.7607 41.7951 72.7957 41.753C72.8648 41.671 72.928 41.6087 73.0115 41.5394C73.1186 41.4499 73.2024 41.3577 73.2925 41.252C73.4006 41.1285 73.5129 41.0093 73.6252 40.8898C73.7763 40.7286 73.9261 40.567 74.0704 40.3996C74.1667 40.2884 74.2653 40.1794 74.3642 40.0704C74.4266 40.0012 74.4883 39.9316 74.5496 39.8614C74.7364 39.6492 74.9176 39.4569 75.1717 39.3253C75.1998 39.3105 75.228 39.2958 75.257 39.2806C75.7187 39.0768 76.2839 39.1251 76.7091 39.3858Z" fill="#FDFDFD"/>
<path d="M53.5237 28.7727C53.5605 28.772 53.5974 28.7712 53.6354 28.7705C53.9364 28.7707 54.1761 28.8367 54.4273 29.0042C54.4273 29.028 54.4273 29.0517 54.4273 29.0761C54.4562 29.0884 54.4562 29.0884 54.4857 29.1009C54.7134 29.2267 54.8238 29.3638 54.9241 29.5976C54.9348 29.6211 54.9455 29.6445 54.9566 29.6686C55.1634 30.1306 55.1035 30.5756 54.9354 31.0362C54.8288 31.3103 54.6923 31.5629 54.5396 31.8135C54.4951 31.8885 54.4536 31.9647 54.412 32.0413C54.3237 32.2011 54.2251 32.3509 54.1193 32.4996C54.1009 32.5257 54.0824 32.5518 54.0634 32.5787C53.8262 32.9085 53.5638 33.2129 53.2764 33.4999C53.2229 33.5603 53.1697 33.621 53.1168 33.682C52.9993 33.8137 52.888 33.9107 52.7369 34.0034C52.6762 34.0626 52.6163 34.1225 52.5571 34.1832C52.4976 34.2317 52.4376 34.2796 52.3773 34.3271C52.341 34.3565 52.3047 34.386 52.2673 34.4163C51.9795 34.6478 51.6833 34.8507 51.3702 35.0464C51.3135 35.0846 51.3135 35.0846 51.2556 35.1235C51.1582 35.1878 51.0588 35.2386 50.954 35.2893C50.8467 35.3444 50.7437 35.4056 50.6397 35.4668C50.353 35.6339 50.0536 35.7722 49.7526 35.9114C49.6904 35.9406 49.6289 35.9712 49.5675 36.0022C49.4733 36.0489 49.3781 36.0914 49.2812 36.1323C49.2061 36.1639 49.1314 36.1963 49.0566 36.2288C48.6879 36.3883 48.3179 36.5447 47.9468 36.6986C47.9065 36.7156 47.8661 36.7326 47.8246 36.7501C47.3514 36.9448 46.7975 37.0655 46.2991 36.8807C45.903 36.6988 45.614 36.4394 45.4319 36.0369C45.3046 35.6448 45.2905 35.099 45.4719 34.7227C45.6791 34.3535 45.9693 34.0736 46.3744 33.936C46.5864 33.8612 46.7906 33.7732 46.9959 33.682C47.2183 33.584 47.44 33.4874 47.668 33.4032C47.8936 33.3188 48.1054 33.2123 48.3193 33.102C48.4081 33.0565 48.4976 33.0124 48.587 32.9682C48.847 32.8393 49.1053 32.7072 49.3629 32.5738C49.4113 32.549 49.4113 32.549 49.4607 32.5237C49.6193 32.4411 49.7591 32.3579 49.8957 32.2411C49.9569 32.2055 49.9569 32.2055 50.0193 32.1692C50.2413 32.0332 50.4319 31.8545 50.6265 31.6827C50.6799 31.6359 50.7338 31.5897 50.7879 31.5436C50.9843 31.3736 51.1468 31.1916 51.305 30.9855C51.3266 30.9607 51.3481 30.9359 51.3702 30.9104C51.394 30.9104 51.4177 30.9104 51.4422 30.9104C51.4465 30.881 51.4465 30.881 51.451 30.8511C51.4876 30.7369 51.5521 30.66 51.6242 30.5642C51.7609 30.3762 51.8597 30.1845 51.9502 29.9708C52.1661 29.4678 52.417 29.0611 52.9408 28.8332C53.1315 28.7673 53.3239 28.7713 53.5237 28.7727Z" fill="#FDFDFD"/>
<path d="M39.6677 36.5769C39.9699 36.7973 40.2294 37.1291 40.3044 37.5005C40.3151 37.5818 40.3208 37.6616 40.3241 37.7435C40.3255 37.7694 40.327 37.7953 40.3285 37.8219C40.3401 38.2066 40.2596 38.508 40.0364 38.8225C40.0213 38.845 40.0062 38.8676 39.9907 38.8908C39.7162 39.2574 39.2796 39.403 38.851 39.492C38.6108 39.5423 38.3721 39.5966 38.1339 39.6553C38.1061 39.6622 38.0784 39.669 38.0498 39.676C37.9357 39.7042 37.8215 39.7325 37.7075 39.761C37.3719 39.8445 37.0375 39.9195 36.6971 39.9809C36.3754 40.0406 36.057 40.1189 35.7383 40.1925C35.4046 40.2694 35.0717 40.3422 34.7341 40.3994C34.525 40.4352 34.3173 40.4767 34.1095 40.5198C34.0761 40.5267 34.0426 40.5336 34.0082 40.5408C33.8707 40.5693 33.7332 40.598 33.5957 40.6268C33.2491 40.6994 32.9047 40.7695 32.5534 40.8157C32.3611 40.844 32.1704 40.8792 31.9793 40.9144C31.9404 40.9215 31.9016 40.9287 31.8616 40.936C31.6996 40.9658 31.5377 40.9957 31.3758 41.0259C31.2563 41.0482 31.1368 41.0701 31.0172 41.092C30.9809 41.0988 30.9447 41.1057 30.9073 41.1128C30.4646 41.1933 30.0441 41.1694 29.6504 40.9286C29.2557 40.6518 29.0363 40.3365 28.9231 39.8655C28.8801 39.3491 28.9903 38.9734 29.2737 38.5483C29.6805 38.1189 30.175 38.0378 30.7349 37.9374C30.8375 37.919 30.9401 37.9001 31.0426 37.8811C31.3226 37.8297 31.6016 37.78 31.8843 37.7459C32.2724 37.697 32.654 37.6101 33.0366 37.53C33.1897 37.4981 33.3428 37.4663 33.496 37.4346C33.5331 37.4269 33.5702 37.4192 33.6085 37.4113C33.8181 37.3682 34.0278 37.3283 34.2388 37.2926C34.5775 37.235 34.9115 37.1577 35.2462 37.0804C35.3671 37.0526 35.4879 37.0249 35.6088 36.9974C35.6387 36.9906 35.6687 36.9838 35.6995 36.9767C35.9125 36.9286 36.1262 36.8851 36.3405 36.8433C36.6568 36.7813 36.9686 36.707 37.2805 36.6264C37.6343 36.5354 37.9882 36.4502 38.346 36.3769C38.3781 36.3701 38.4102 36.3634 38.4432 36.3564C38.8672 36.2766 39.2986 36.3562 39.6677 36.5769Z" fill="#FCFCFC"/>
<path d="M-2.50241 38.9451C-2.21329 38.9846 -1.92496 39.0135 -1.63397 39.0355C-1.27592 39.0627 -0.918755 39.0958 -0.561606 39.1328C-0.536321 39.1354 -0.511035 39.138 -0.484983 39.1407C-0.354376 39.1542 -0.223775 39.1677 -0.0931768 39.1813C1.23757 39.3196 2.56229 39.4335 3.89924 39.4896C4.23932 39.5039 4.57932 39.5187 4.9192 39.5375C4.96282 39.5395 5.00644 39.5414 5.05138 39.5434C5.40331 39.5643 5.70271 39.6627 6.01165 39.8297C6.01165 39.8535 6.01165 39.8772 6.01165 39.9017C6.03613 39.9076 6.0606 39.9135 6.08582 39.9196C6.41171 40.086 6.53796 40.4306 6.64512 40.7609C6.72584 41.2012 6.65185 41.6331 6.41851 42.0146C6.17538 42.3501 5.84529 42.5851 5.4362 42.671C5.29988 42.6793 5.16335 42.6776 5.02681 42.6775C4.9855 42.6774 4.94418 42.6774 4.90162 42.6773C4.40861 42.674 3.91818 42.6389 3.42663 42.6036C3.25492 42.5915 3.0832 42.5797 2.91148 42.5679C2.83955 42.563 2.76762 42.558 2.69569 42.553C2.45234 42.5363 2.2091 42.5209 1.96539 42.5104C1.94103 42.5094 1.91667 42.5083 1.89157 42.5072C1.85601 42.5057 1.85601 42.5057 1.81973 42.5041C1.12653 42.4734 0.437109 42.4029 -0.25309 42.3338C-0.279818 42.3312 -0.306546 42.3285 -0.334085 42.3257C-0.988599 42.2604 -1.64215 42.1896 -2.29479 42.1075C-2.57449 42.0726 -2.85385 42.0437 -3.13482 42.0214C-3.72857 41.9704 -4.18605 41.8295 -4.59817 41.3762C-4.67486 41.2613 -4.7289 41.1455 -4.778 41.0166C-4.7894 40.9881 -4.80081 40.9597 -4.81256 40.9303C-4.94154 40.5647 -4.92137 40.187 -4.778 39.8297C-4.76089 39.7854 -4.76089 39.7854 -4.74344 39.7402C-4.56229 39.3272 -4.26035 39.0951 -3.85357 38.9327C-3.40677 38.7892 -2.95643 38.8805 -2.50241 38.9451Z" fill="#FCFCFC"/>
<path d="M21.091 19.6088C21.4758 19.8703 21.7373 20.2454 21.8275 20.705C21.8841 21.137 21.7884 21.5132 21.5527 21.8826C21.5171 21.8945 21.4815 21.9063 21.4448 21.9185C21.4401 21.9392 21.4354 21.9598 21.4306 21.9811C21.3987 22.1003 21.3253 22.1608 21.2402 22.249C21.099 22.3993 20.9813 22.5484 20.875 22.7248C20.8613 22.7436 20.8475 22.7624 20.8334 22.7817C20.8097 22.7817 20.7859 22.7817 20.7615 22.7817C20.7515 22.8025 20.7415 22.8234 20.7313 22.8448C20.5371 23.2207 20.2558 23.5664 20.0129 23.9124C19.8842 24.0963 19.761 24.2801 19.6499 24.4755C19.5868 24.5855 19.521 24.6939 19.4555 24.8025C19.4125 24.8741 19.3696 24.9456 19.3267 25.0172C19.292 25.075 19.2573 25.1327 19.2225 25.1904C18.9313 25.6812 18.6757 26.1924 18.4227 26.7037C18.3871 26.7751 18.351 26.8462 18.3148 26.9173C18.2904 26.9654 18.266 27.0135 18.2416 27.0616C18.2236 27.0971 18.2236 27.0971 18.2053 27.1333C18.1331 27.2775 18.0682 27.4233 18.0068 27.5725C17.8028 28.0651 17.5406 28.4152 17.0483 28.6459C16.6683 28.7928 16.2446 28.7889 15.87 28.6359C15.4803 28.4535 15.1771 28.2075 15.007 27.8034C14.7139 26.924 15.1741 26.1528 15.5569 25.384C15.6021 25.2938 15.6475 25.2036 15.693 25.1135C15.7681 24.9647 15.843 24.8157 15.916 24.6657C16.0061 24.4808 16.1058 24.3053 16.2132 24.13C16.2637 24.044 16.308 23.9572 16.3512 23.8674C16.4428 23.6798 16.5512 23.5046 16.662 23.3277C16.7255 23.2259 16.787 23.1233 16.848 23.02C16.9099 22.916 16.9742 22.8164 17.0458 22.7188C17.1292 22.608 17.1292 22.608 17.179 22.501C17.2398 22.3803 17.3084 22.2696 17.383 22.1568C17.4203 22.0997 17.4203 22.0997 17.4584 22.0413C17.4802 22.0127 17.5021 21.984 17.5246 21.9545C17.5483 21.9545 17.572 21.9545 17.5965 21.9545C17.6023 21.9233 17.6023 21.9233 17.6082 21.8914C17.6358 21.7995 17.6746 21.7444 17.7336 21.669C17.753 21.6439 17.7725 21.6188 17.7925 21.5929C17.8359 21.5384 17.8802 21.4844 17.9247 21.4308C17.9963 21.3424 17.9963 21.3424 18.0528 21.2307C18.1619 21.0335 18.3158 20.868 18.4597 20.6957C18.5116 20.6314 18.5633 20.567 18.6148 20.5024C18.6369 20.4747 18.659 20.447 18.6818 20.4184C18.7143 20.3776 18.7143 20.3776 18.7474 20.3361C19.3496 19.5813 20.1338 19.071 21.091 19.6088Z" fill="#FCFCFC"/>
<path d="M23.2938 39.5828C23.5624 39.8431 23.7731 40.2078 23.7958 40.586C23.7951 40.668 23.7896 40.7479 23.7814 40.8294C23.7793 40.8553 23.7771 40.8811 23.7748 40.9077C23.7328 41.2902 23.6111 41.5775 23.3463 41.8579C23.3283 41.8781 23.3102 41.8983 23.2916 41.9191C22.9687 42.244 22.5161 42.3274 22.0793 42.3558C21.8345 42.3722 21.5905 42.3928 21.3464 42.4178C21.318 42.4207 21.2896 42.4236 21.2603 42.4266C21.1433 42.4386 21.0264 42.4508 20.9095 42.4631C20.5655 42.4991 20.224 42.5268 19.8783 42.5403C19.5514 42.5545 19.2253 42.5879 18.8994 42.6164C18.5583 42.6461 18.2185 42.6719 17.8762 42.6815C17.6641 42.6878 17.4527 42.7 17.241 42.7137C17.2069 42.716 17.1728 42.7182 17.1376 42.7204C16.9975 42.7296 16.8574 42.7389 16.7173 42.7483C16.3639 42.7719 16.0131 42.7933 15.6588 42.7903C15.4644 42.7915 15.2706 42.7998 15.0765 42.8081C15.0371 42.8097 14.9976 42.8114 14.957 42.8131C14.7924 42.82 14.6279 42.8271 14.4634 42.8345C14.342 42.8399 14.2205 42.845 14.0991 42.85C14.0622 42.8518 14.0253 42.8535 13.9874 42.8553C13.5378 42.8734 13.1247 42.7913 12.7683 42.498C12.416 42.169 12.2426 41.8262 12.196 41.344C12.2253 40.8266 12.3868 40.4699 12.7266 40.0884C13.1891 39.7199 13.6901 39.7083 14.2586 39.6869C14.3628 39.6829 14.467 39.6785 14.5711 39.6739C14.8555 39.662 15.1388 39.6516 15.4234 39.6572C15.8146 39.6628 16.2045 39.6298 16.5946 39.6037C16.7506 39.5935 16.9067 39.5833 17.0628 39.5732C17.1006 39.5708 17.1384 39.5683 17.1774 39.5658C17.391 39.5523 17.6042 39.5419 17.8181 39.5359C18.1616 39.5261 18.503 39.496 18.8453 39.4661C18.9688 39.4554 19.0923 39.4448 19.2159 39.4343C19.2465 39.4317 19.277 39.4291 19.3085 39.4265C19.5262 39.4085 19.7438 39.3951 19.9619 39.3835C20.2837 39.3662 20.6028 39.336 20.923 39.2995C21.2859 39.2587 21.6482 39.2236 22.0128 39.2008C22.0455 39.1985 22.0782 39.1963 22.1119 39.1941C22.5428 39.174 22.959 39.3129 23.2938 39.5828Z" fill="#FCFCFC"/>
<path d="M14.398 32.5629C14.9066 32.6108 15.3577 32.8337 15.6899 33.2291C15.9752 33.6158 16.0846 34.0295 16.0563 34.5111C16.0285 34.5414 16.0007 34.5718 15.9721 34.6031C15.9787 34.6255 15.9852 34.6479 15.9919 34.6709C16.0251 34.8029 15.9872 34.9003 15.9528 35.0305C15.8978 35.2505 15.8647 35.4569 15.8572 35.6836C15.8541 35.709 15.851 35.7344 15.8477 35.7605C15.825 35.7731 15.8023 35.7857 15.7788 35.7987C15.7804 35.8241 15.782 35.8495 15.7836 35.8756C15.7985 36.3414 15.7138 36.8243 15.6661 37.2871C15.641 37.5329 15.6213 37.7756 15.6193 38.023C15.6176 38.1627 15.6126 38.3023 15.6078 38.4419C15.6049 38.5337 15.602 38.6255 15.5992 38.7173C15.5969 38.7915 15.5945 38.8656 15.592 38.9398C15.5753 39.5679 15.6038 40.1968 15.6347 40.8244C15.6388 40.9122 15.6423 41 15.6456 41.0878C15.6479 41.1472 15.6502 41.2065 15.6526 41.2659C15.6543 41.3096 15.6543 41.3096 15.6561 41.3543C15.664 41.5318 15.6797 41.7069 15.7008 41.8834C15.7686 42.467 15.7046 42.944 15.3562 43.4281C15.0705 43.7716 14.6624 43.9929 14.2217 44.0443C13.7507 44.0754 13.3286 43.9991 12.9495 43.6997C12.1984 43.0071 12.2271 42.0186 12.1828 41.0737C12.1778 40.9626 12.1731 40.8516 12.1686 40.7405C12.1609 40.5569 12.153 40.3734 12.1428 40.19C12.1303 39.9638 12.132 39.7416 12.1412 39.5154C12.1436 39.4056 12.1396 39.2984 12.133 39.1888C12.1205 38.9591 12.1307 38.7325 12.1422 38.503C12.1486 38.3711 12.1528 38.2394 12.1559 38.1074C12.1597 37.9742 12.168 37.8439 12.1844 37.7118C12.2051 37.5606 12.2051 37.5606 12.1956 37.431C12.1893 37.2822 12.196 37.139 12.207 36.9906C12.2123 36.9156 12.2123 36.9156 12.2176 36.8391C12.2232 36.7999 12.2288 36.7606 12.2346 36.7202C12.2573 36.7076 12.2801 36.695 12.3035 36.682C12.2923 36.6488 12.2923 36.6488 12.281 36.6149C12.2583 36.5116 12.2661 36.4378 12.2823 36.3338C12.2874 36.2992 12.2926 36.2646 12.298 36.229C12.3105 36.1534 12.324 36.0778 12.338 36.0024C12.3594 35.8792 12.3594 35.8792 12.3538 35.7414C12.3529 35.4932 12.4118 35.2518 12.4576 35.0092C12.4729 34.9196 12.488 34.83 12.5029 34.7403C12.5092 34.7018 12.5156 34.6633 12.5222 34.6237C12.5315 34.5671 12.5315 34.5671 12.541 34.5094C12.7145 33.4614 13.1932 32.5526 14.398 32.5629Z" fill="#FCFCFC"/>
</g>
<defs>
<clipPath id="clip0_4585_6667">
<rect width="75" height="75" rx="37.5" fill="white"/>
</clipPath>
</defs>
</svg>
